<?xml version="1.0" encoding="UTF-8"?>
<svg id="Capa_1" xmlns="http://www.w3.org/2000/svg" version="1.1" viewBox="0 0 64 64">
  <!-- Generator: Adobe Illustrator 29.8.9, SVG Export Plug-In . SVG Version: 2.1.1 Build 1)  -->
  <defs>
    <style>
      .st0 {
        fill: #717070;
      }

      .st1 {
        fill: #e64328;
      }

      .st2 {
        fill: #202022;
      }

      .st3 {
        fill: #fbc60d;
      }

      .st4 {
        fill: #ef8025;
      }
    </style>
  </defs>
  <path class="st3" d="M32,.9C20.4.9,10.3,7.2,4.9,16.6h54.2C53.7,7.2,43.6.9,32,.9Z"/>
  <path class="st4" d="M.9,33h14.4l1-1.2,1.1,1.2h7.3l8.6-9.1,7.1,9.1h5.7l1-.9.8.9h15.2c0-.3,0-.6,0-1,0-5.6-1.5-10.9-4.1-15.4H4.9C2.3,21.1.9,26.4.9,32s0,.6,0,1Z"/>
  <polygon class="st1" points="24.7 33 17.4 33 21 36.9 24.7 33"/>
  <path class="st1" d="M59.9,45.9c2-3.9,3.1-8.3,3.3-12.9h-15.2l11.9,12.9Z"/>
  <path class="st1" d="M.9,33c.1,4.6,1.3,8.9,3.2,12.7l11.2-12.7H.9Z"/>
  <polygon class="st1" points="46.1 33 40.4 33 42.6 35.9 46.1 33"/>
  <polygon class="st0" points="30.1 36.1 30.9 33 32.2 27.7 27.3 33 22.8 37.8 23.9 41 26.9 38.4 27.8 41.8 32.7 36 30.1 36.1"/>
  <polygon class="st0" points="15.6 35.1 5.5 46.7 11.3 43.1 11.9 45 16.5 41.2 14 41.3 15.6 35.1"/>
  <path class="st0" d="M46.5,34.8l-2.9,2.2,5.1,6.3s.5-1.6-1.5-3.9l-.7-4.6Z"/>
  <path class="st2" d="M47.9,33l-.8-.9-1,.9-3.5,2.9-2.3-2.9-7.1-9.1-8.6,9.1-3.7,4-3.6-4-1.1-1.2-1,1.2-11.2,12.7c.6,1.2,1.3,2.4,2,3.5.2.2.3.5.5.7.6.8,1.2,1.6,1.9,2.4,5.7,6.6,14.2,10.8,23.6,10.8s17.9-4.2,23.6-10.8c.7-.8,1.3-1.6,1.9-2.4.2-.2.3-.5.5-.7.7-1,1.3-2.1,1.9-3.3l-11.9-12.9ZM46.5,34.8l.7,4.6c2,2.2,1.5,3.9,1.5,3.9l-5.1-6.3,2.9-2.2ZM27.3,33l4.9-5.3-1.3,5.3-.8,3.2h2.7c0,0-5,5.7-5,5.7l-.9-3.5-2.9,2.6-1.1-3.2,4.5-4.8ZM5.5,46.7l10.1-11.5-1.7,6.2h2.5c0-.1-4.6,3.6-4.6,3.6l-.5-1.8-5.8,3.5Z"/>
</svg>