<?xml version="1.0" encoding="UTF-8"?>
<svg id="Capa_1" xmlns="http://www.w3.org/2000/svg" version="1.1" viewBox="0 0 96 96">
  <!-- Generator: Adobe Illustrator 29.8.9, SVG Export Plug-In . SVG Version: 2.1.1 Build 1)  -->
  <defs>
    <style>
      .st0 {
        fill: #717070;
      }

      .st1 {
        fill: #ef8125;
      }

      .st2 {
        fill: #202022;
      }

      .st3 {
        fill: #e74229;
      }

      .st4 {
        fill: #fdc80a;
      }
    </style>
  </defs>
  <path class="st4" d="M78.6.2C77.7,0,76.9,0,76,0H20C19.1,0,18.3,0,17.4.2,7.6,1.5,0,9.8,0,20v2.2h96v-2.2c0-10.2-7.6-18.5-17.4-19.8Z"/>
  <polygon class="st1" points="0 44.2 18.6 44.2 19.3 43.4 21.1 41.4 23 43.4 23.7 44.2 34.9 44.2 35.6 43.4 50.3 27.8 62.5 43.4 63.1 44.2 71.4 44.2 72.3 43.4 74.1 42 75.5 43.4 76.2 44.2 96 44.2 96 22.2 0 22.2 0 44.2"/>
  <polygon class="st3" points="0 44.2 0 65.4 18.6 44.2 0 44.2"/>
  <polygon class="st3" points="71.4 44.2 63.1 44.2 66.4 48.4 71.4 44.2"/>
  <polygon class="st3" points="34.9 44.2 23.7 44.2 29.2 50.2 34.9 44.2"/>
  <polygon class="st3" points="96 65.7 96 44.2 76.2 44.2 96 65.7"/>
  <polygon class="st0" points="44.8 48.9 45.9 44.2 46.1 43.4 48.4 34.3 40 43.4 39.2 44.2 32.3 51.7 34.2 57.2 39.2 52.7 40.8 58.7 49.3 48.7 44.8 48.9"/>
  <polygon class="st0" points="13.4 64 21.4 57.6 17.1 57.8 20 47.1 2.6 67 12.6 60.9 13.4 64"/>
  <path class="st0" d="M72.9,46.5l-5,3.8,8.8,10.8s.8-2.8-2.6-6.7l-1.2-7.9Z"/>
  <path class="st2" d="M76.2,44.2l-.7-.8-1.4-1.5-1.8,1.5-.9.8-5,4.2-3.3-4.2-.6-.8-12.1-15.6-14.8,15.6-.7.8-5.7,6-5.5-6-.7-.8-1.9-2-1.8,2-.7.8L0,65.4v10.6c0,11,9,20,20,20h56c11,0,20-9,20-20v-10.3l-19.8-21.5ZM72.9,46.5l1.2,7.9c3.4,3.9,2.6,6.7,2.6,6.7l-8.8-10.8,5-3.8ZM39.2,44.2l.7-.8,8.5-9.1-2.3,9.1-.2.8-1.2,4.7,4.6-.2-8.5,10-1.6-6-5,4.5-1.9-5.5,6.9-7.5ZM20,47.1l-2.9,10.7,4.3-.2-7.9,6.5-.9-3.1-10,6.1,17.4-19.9Z"/>
</svg>